<mxfile host="app.diagrams.net" modified="2024-06-04T15:32:51.828Z" agent="Mozilla/5.0 (Windows NT 10.0; Win64; x64) AppleWebKit/537.36 (KHTML, like Gecko) Chrome/125.0.0.0 Safari/537.36" etag="KJ46MmSO_c0wUnOJYwtf" version="24.4.13" type="github">
  <diagram name="Страница — 1" id="n8TSN614gjoDNXFW8jnp">
    <mxGraphModel dx="2012" dy="647" grid="1" gridSize="10" guides="1" tooltips="1" connect="1" arrows="1" fold="1" page="1" pageScale="1" pageWidth="827" pageHeight="1169" math="0" shadow="0">
      <root>
        <mxCell id="0" />
        <mxCell id="1" parent="0" />
        <mxCell id="qrRaa9IktmUIo8uapEVB-1" value="Пользователь" style="shape=umlActor;verticalLabelPosition=bottom;verticalAlign=top;html=1;outlineConnect=0;labelPosition=center;align=center;" vertex="1" parent="1">
          <mxGeometry x="20" y="810" width="30" height="60" as="geometry" />
        </mxCell>
        <mxCell id="qrRaa9IktmUIo8uapEVB-2" value="Usecase: тайм-трекера." style="shape=umlFrame;whiteSpace=wrap;html=1;pointerEvents=0;width=140;height=90;" vertex="1" parent="1">
          <mxGeometry x="180" y="710" width="830" height="950" as="geometry" />
        </mxCell>
      </root>
    </mxGraphModel>
  </diagram>
</mxfile>
